<svg width="20" height="20" viewBox="0 0 20 20" fill="none" xmlns="http://www.w3.org/2000/svg">
<circle cx="11" cy="11" r="8.4" stroke="#CFE569" stroke-width="1.2"/>
<circle cx="11" cy="11" r="6.3" stroke="#CFE569" stroke-width="1.4"/>
<circle cx="11" cy="11" r="3.4" stroke="#CFE569" stroke-width="1.2"/>
<path d="M2.70711 6.70711L1.70711 5.70711C1.31658 5.31658 1.31658 4.68342 1.70711 4.29289L3.79289 2.20711C4.18342 1.81658 4.81658 1.81658 5.20711 2.20711L6.20711 3.20711C6.39464 3.39464 6.5 3.649 6.5 3.91421V5.05763C6.5 5.33938 6.61885 5.60805 6.82733 5.79757L11.224 9.79453C11.6465 10.1786 11.6621 10.8379 11.2584 11.2416L11.1742 11.3258C10.7968 11.7032 10.1894 11.7177 9.79446 11.3586L5.28607 7.26006C5.10199 7.09272 4.86216 7 4.61339 7H3.41421C3.149 7 2.89464 6.89464 2.70711 6.70711Z" stroke="#0E0E0E"/>
<path d="M1.5332 2.38574L10.7976 10.7773" stroke="#CFE569" stroke-width="1.5" stroke-linecap="round"/>
<path d="M2.95525 6.44395L1.24264 4.71567C0.934152 4.40436 1.14697 3.87503 1.58509 3.86389L2.73233 3.83472C2.99675 3.828 3.21019 3.61649 3.21932 3.35214L3.25893 2.20522C3.27406 1.76721 3.80531 1.55923 4.11379 1.87053L5.82641 3.59881C5.92341 3.6967 5.97571 3.83028 5.97095 3.96801L5.89884 6.05616C5.88971 6.32051 5.67627 6.53202 5.41184 6.53874L3.32312 6.59184C3.18535 6.59535 3.05225 6.54183 2.95525 6.44395Z" fill="#CFE569"/>
</svg>
