<svg width="39" height="31" viewBox="0 0 39 31" fill="none" xmlns="http://www.w3.org/2000/svg">
<g clip-path="url(#clip0_251_116)">
<path d="M24.5151 6.40999V3.71997H15.4947L5.57227 13.4333L9.95361 23.56H16.9122L9.95361 13.4333L15.4947 6.40999H24.5151Z" fill="#CFE569" stroke="#CFE569"/>
<path d="M14.3262 8.27174C12.5679 8.27174 11.1426 6.69763 11.1426 4.75587C11.1426 2.8141 12.5679 1.23999 14.3262 1.23999C16.0844 1.23999 17.5098 2.8141 17.5098 4.75587C17.5098 6.69763 16.0844 8.27174 14.3262 8.27174Z" fill="#CFE569"/>
<path d="M7.74952 17.1902C5.93168 17.1902 4.45803 15.5627 4.45803 13.5551C4.45803 11.5475 5.93168 9.92004 7.74952 9.92004C9.56736 9.92004 11.041 11.5475 11.041 13.5551C11.041 15.5627 9.56736 17.1902 7.74952 17.1902Z" fill="#CFE569"/>
<path d="M21.8292 26.4156L24.9507 29.8719H3.36719L6.48879 26.4156H21.8292Z" fill="#CFE569" stroke="#CFE569"/>
<path d="M26.0784 29.8679C26.0784 29.2425 25.6194 28.7356 25.0532 28.7356H3.25373C2.68752 28.7356 2.22852 29.2425 2.22852 29.8679C2.22852 30.4932 2.68752 31.0001 3.25373 31.0001H25.0532C25.6194 31.0001 26.0784 30.4932 26.0784 29.8679Z" fill="#CFE569"/>
<path d="M33.9022 3.37777C33.9022 1.51228 32.5328 0 30.8437 0C29.1545 0 27.7852 1.51228 27.7852 3.37777V7.88145C27.7852 9.74694 29.1545 11.2592 30.8437 11.2592C32.5328 11.2592 33.9022 9.74694 33.9022 7.88145V3.37777Z" fill="#CFE569"/>
<path d="M38.9996 14.637C38.9996 14.637 35.4789 14.637 30.9745 14.637C26.47 14.637 22.6875 14.637 22.6875 14.637C22.6875 9.66234 26.3391 5.62964 30.8436 5.62964C35.348 5.62964 38.9996 9.66234 38.9996 14.637Z" fill="#CFE569"/>
<path d="M30.8437 16.8888C32.5328 16.8888 33.9022 15.6285 33.9022 14.074C33.9022 12.5194 32.5328 11.2592 30.8437 11.2592C29.1545 11.2592 27.7852 12.5194 27.7852 14.074C27.7852 15.6285 29.1545 16.8888 30.8437 16.8888Z" fill="#CFE569"/>
</g>
<defs>
<clipPath id="clip0_251_116">
<rect width="39" height="31" fill="white"/>
</clipPath>
</defs>
</svg>
